<?xml version="1.0" standalone="no"?>
<!DOCTYPE svg PUBLIC "-//W3C//DTD SVG 20010904//EN"
 "http://www.w3.org/TR/2001/REC-SVG-20010904/DTD/svg10.dtd">
<svg version="1.0" xmlns="http://www.w3.org/2000/svg"
 width="2138.000000pt" height="2154.000000pt" viewBox="0 0 2138.000000 2154.000000"
 preserveAspectRatio="xMidYMid meet">

<g transform="translate(0.000000,2154.000000) scale(0.100000,-0.100000)"
fill="#000000" stroke="none">
<path d="M2740 21529 c-819 -67 -1603 -496 -2115 -1157 -352 -455 -566 -1011
-615 -1598 -13 -164 -13 -15844 0 -16008 22 -259 65 -470 145 -711 381 -1144
1397 -1943 2600 -2045 76 -6 817 -10 2006 -10 l1886 0 6 137 c9 220 59 364
163 474 99 103 225 146 431 148 106 1 267 31 356 66 121 49 215 144 261 263
20 54 21 74 21 377 0 176 -3 484 -8 685 -4 201 -12 585 -18 855 -5 269 -11
490 -12 491 -1 0 -76 -14 -167 -32 -416 -84 -737 -117 -1115 -116 -346 0 -575
25 -860 92 -509 120 -942 358 -1263 695 -192 200 -316 390 -418 640 -136 331
-318 670 -486 902 -216 299 -476 555 -687 673 -180 101 -421 308 -481 412 -37
65 -41 135 -10 185 27 45 109 89 215 115 119 29 346 31 479 4 274 -55 505
-149 746 -302 152 -96 279 -198 424 -342 195 -192 298 -323 436 -552 43 -72
118 -185 167 -252 100 -137 307 -358 427 -455 309 -248 670 -400 1081 -454
135 -18 466 -15 615 5 162 22 339 59 520 108 163 44 421 137 425 153 1 5 10
61 20 124 74 496 272 939 581 1301 53 61 94 113 92 114 -1 1 -57 8 -123 15
-66 7 -212 26 -325 42 -1220 176 -2155 521 -2869 1059 -1123 847 -1722 2185
-1799 4020 -31 752 18 1238 184 1805 158 540 443 1075 812 1528 54 65 108 132
121 148 l24 29 -26 58 c-58 130 -124 395 -162 648 -66 447 -33 994 91 1534 64
277 210 712 245 731 10 5 69 14 131 21 178 17 472 -17 748 -87 584 -148 1319
-501 2078 -1000 l134 -87 41 11 c999 269 1826 382 2797 382 555 0 927 -26
1455 -102 471 -68 827 -142 1341 -280 l40 -10 185 119 c349 225 627 386 927
536 642 321 1179 490 1657 521 100 7 294 -8 325 -25 27 -14 159 -395 219 -630
117 -457 171 -977 141 -1365 -27 -355 -90 -670 -176 -888 l-36 -88 24 -29
c336 -412 491 -643 664 -995 287 -585 433 -1183 459 -1890 7 -185 -10 -702
-30 -941 -59 -699 -204 -1341 -425 -1879 -74 -180 -250 -524 -347 -680 -421
-673 -1016 -1198 -1778 -1566 -501 -242 -1046 -412 -1724 -539 -224 -42 -545
-90 -741 -111 -63 -7 -117 -14 -119 -16 -2 -1 52 -60 120 -130 169 -174 281
-341 390 -583 126 -280 213 -633 251 -1010 18 -182 17 -556 -6 -2065 -10 -693
-16 -1334 -14 -1425 4 -151 6 -170 31 -229 31 -75 82 -140 146 -187 99 -73
289 -124 466 -125 203 -1 334 -48 432 -153 103 -111 151 -255 160 -478 l6
-128 1886 0 c1189 0 1930 4 2006 10 713 61 1371 366 1875 870 508 508 810
1163 870 1886 13 164 13 15844 0 16008 -43 515 -210 1001 -488 1419 -514 774
-1345 1264 -2266 1337 -160 12 -15720 11 -15876 -1z"/>
</g>
</svg>
