<?xml version="1.0" standalone="no"?>
<!DOCTYPE svg PUBLIC "-//W3C//DTD SVG 20010904//EN"
 "http://www.w3.org/TR/2001/REC-SVG-20010904/DTD/svg10.dtd">
<svg version="1.0" xmlns="http://www.w3.org/2000/svg"
 width="2138.000000pt" height="2154.000000pt" viewBox="0 0 2138.000000 2154.000000"
 preserveAspectRatio="xMidYMid meet">

<g transform="translate(0.000000,2154.000000) scale(0.100000,-0.100000)"
fill="#000000" stroke="none">
<path d="M2740 21529 c-819 -67 -1603 -496 -2115 -1157 -352 -455 -566 -1011
-615 -1598 -13 -164 -13 -15844 0 -16008 22 -259 65 -470 145 -711 381 -1144
1397 -1943 2600 -2045 166 -14 15704 -14 15870 0 713 61 1371 366 1875 870
508 508 810 1163 870 1886 13 164 13 15844 0 16008 -43 515 -210 1001 -488
1419 -514 774 -1345 1264 -2266 1337 -160 12 -15720 11 -15876 -1z m-1120
-3859 c97 -28 183 -69 259 -125 47 -35 4174 -4084 5896 -5784 171 -169 429
-424 575 -567 731 -717 1679 -1651 2043 -2013 l407 -406 278 276 c152 151 552
545 887 874 336 330 774 762 975 961 201 198 622 613 936 920 313 307 1744
1713 3179 3124 1434 1411 2633 2584 2664 2608 67 53 193 114 281 138 47 13
102 18 200 18 156 0 220 -14 346 -74 208 -100 369 -295 430 -520 25 -90 25
-309 1 -400 -28 -102 -100 -237 -169 -317 -35 -40 -1362 -1349 -2949 -2908
l-2886 -2836 311 -308 c171 -169 1423 -1400 2781 -2735 1359 -1335 2493 -2454
2520 -2486 68 -79 113 -157 146 -248 158 -447 -92 -921 -552 -1048 -89 -25
-308 -25 -399 0 -88 24 -214 85 -281 138 -31 24 -1317 1283 -2857 2798 -1541
1515 -2806 2755 -2812 2755 -6 0 -566 -547 -1246 -1215 -680 -668 -1260 -1233
-1288 -1254 -61 -47 -189 -108 -271 -131 -33 -9 -116 -19 -185 -22 -202 -9
-361 33 -508 137 -44 31 -553 524 -1367 1325 l-1297 1276 -177 -173 c-97 -95
-1382 -1359 -2855 -2808 -1474 -1449 -2706 -2656 -2738 -2683 -69 -55 -196
-118 -288 -143 -90 -25 -310 -25 -400 0 -277 75 -501 299 -576 576 -25 90 -25
309 -1 400 28 102 100 237 169 317 35 40 1334 1322 2888 2850 1554 1527 2826
2780 2828 2784 2 4 -1272 1261 -2830 2793 -1558 1532 -2859 2816 -2891 2853
-65 75 -136 211 -164 313 -13 48 -17 101 -17 205 1 126 3 149 28 225 48 145
103 235 207 338 112 111 272 193 429 221 83 15 253 5 340 -19z"/>
</g>
</svg>
