<?xml version="1.0" standalone="no"?>
<!DOCTYPE svg PUBLIC "-//W3C//DTD SVG 20010904//EN"
 "http://www.w3.org/TR/2001/REC-SVG-20010904/DTD/svg10.dtd">
<svg version="1.0" xmlns="http://www.w3.org/2000/svg"
 width="2138.000000pt" height="2154.000000pt" viewBox="0 0 2138.000000 2154.000000"
 preserveAspectRatio="xMidYMid meet">

<g transform="translate(0.000000,2154.000000) scale(0.100000,-0.100000)"
fill="#000000" stroke="none">
<path d="M2740 21529 c-819 -67 -1603 -496 -2115 -1157 -352 -455 -566 -1011
-615 -1598 -13 -164 -13 -15844 0 -16008 22 -259 65 -470 145 -711 381 -1144
1397 -1943 2600 -2045 166 -14 15704 -14 15870 0 713 61 1371 366 1875 870
508 508 810 1163 870 1886 13 164 13 15844 0 16008 -43 515 -210 1001 -488
1419 -514 774 -1345 1264 -2266 1337 -160 12 -15720 11 -15876 -1z m2263
-2943 c4 -9 27 -17 64 -20 32 -4 81 -13 108 -21 28 -8 68 -19 90 -24 40 -9 75
-21 150 -49 41 -15 264 -123 300 -145 161 -98 338 -251 474 -411 223 -262 382
-632 422 -981 22 -192 10 -459 -27 -610 -32 -126 -56 -211 -70 -242 -8 -17
-14 -35 -14 -41 0 -19 -76 -180 -130 -272 -140 -244 -343 -463 -587 -633 -29
-21 -55 -37 -57 -37 -3 0 -21 -11 -41 -24 -40 -28 -198 -106 -260 -129 -170
-63 -198 -71 -375 -102 -248 -45 -545 -30 -799 40 -133 36 -365 135 -445 190
-20 14 -39 25 -42 25 -6 0 -100 66 -174 123 -93 72 -221 199 -299 297 -65 82
-151 203 -151 214 0 3 -13 25 -30 49 -16 25 -30 48 -30 52 0 4 -15 40 -34 79
-77 159 -138 353 -151 478 -4 35 -12 58 -21 62 -21 8 -21 511 0 519 9 4 17 28
21 64 11 89 68 298 95 345 6 10 10 23 10 29 0 18 79 179 133 269 115 191 321
420 492 545 122 89 335 208 422 235 15 5 53 18 83 30 75 29 222 66 293 75 36
4 60 12 64 21 4 12 49 14 258 14 209 0 254 -2 258 -14z m9987 -4941 c258 -15
449 -34 595 -60 44 -8 100 -17 125 -21 25 -3 68 -12 95 -19 28 -7 93 -23 145
-35 98 -23 131 -32 260 -74 206 -67 236 -80 460 -190 148 -74 186 -95 310
-175 242 -156 516 -419 701 -671 74 -101 144 -207 168 -255 6 -11 22 -38 35
-60 39 -64 130 -252 175 -360 23 -55 48 -115 56 -133 8 -18 15 -38 15 -45 0
-7 6 -24 14 -39 8 -15 17 -42 21 -60 4 -18 13 -46 20 -63 12 -27 31 -90 70
-230 17 -60 46 -182 70 -290 9 -44 22 -100 27 -125 22 -98 83 -506 94 -620 3
-36 12 -123 19 -195 8 -71 17 -205 20 -297 5 -111 12 -175 21 -193 12 -23 14
-512 14 -3261 l0 -3234 -1625 0 -1624 0 -3 2913 c-3 2682 -5 2925 -21 3072
-30 280 -55 452 -75 530 -6 22 -21 81 -33 130 -23 95 -83 283 -104 325 -135
277 -226 406 -382 542 -88 77 -162 125 -268 177 -117 57 -121 58 -180 77 -424
132 -961 120 -1397 -32 -37 -13 -75 -27 -85 -32 -10 -5 -56 -28 -103 -52 -145
-73 -248 -148 -370 -270 -138 -138 -237 -279 -318 -455 -13 -27 -27 -58 -33
-67 -20 -37 -77 -208 -108 -323 -44 -159 -49 -181 -61 -250 -35 -208 -57 -383
-72 -575 -9 -125 -13 -841 -15 -2938 l-3 -2772 -1620 0 -1620 0 2 5223 3 5222
1553 3 c1238 2 1552 0 1552 -10 0 -7 0 -315 0 -685 0 -649 3 -723 30 -723 6 0
28 27 48 61 216 355 463 637 760 868 109 84 244 180 304 216 101 60 205 120
228 131 8 4 65 30 125 59 61 28 128 59 150 68 118 47 226 87 235 87 6 0 52 14
103 31 97 34 143 45 327 83 172 36 299 54 455 66 288 22 407 23 715 5z m-8622
-5482 l2 -5223 -1625 0 -1625 0 0 5218 c0 2870 3 5222 7 5225 3 4 734 6 1622
5 l1616 -3 3 -5222z"/>
</g>
</svg>
