<?xml version="1.0" standalone="no"?>
<!DOCTYPE svg PUBLIC "-//W3C//DTD SVG 20010904//EN"
 "http://www.w3.org/TR/2001/REC-SVG-20010904/DTD/svg10.dtd">
<svg version="1.0" xmlns="http://www.w3.org/2000/svg"
 width="2138.000000pt" height="2154.000000pt" viewBox="0 0 2138.000000 2154.000000"
 preserveAspectRatio="xMidYMid meet">

<g transform="translate(0.000000,2154.000000) scale(0.100000,-0.100000)"
fill="#000000" stroke="none">
<path d="M2740 21529 c-819 -67 -1603 -496 -2115 -1157 -352 -455 -566 -1011
-615 -1598 -13 -164 -13 -15844 0 -16008 22 -259 65 -470 145 -711 381 -1144
1397 -1943 2600 -2045 166 -14 15704 -14 15870 0 713 61 1371 366 1875 870
508 508 810 1163 870 1886 13 164 13 15844 0 16008 -43 515 -210 1001 -488
1419 -514 774 -1345 1264 -2266 1337 -160 12 -15720 11 -15876 -1z m9070
-2829 c2358 -106 4327 -1157 5494 -2933 827 -1256 1179 -2800 1021 -4477 -175
-1857 -991 -3335 -2265 -4102 -487 -293 -1019 -470 -1625 -540 -177 -20 -673
-17 -820 6 -571 87 -986 333 -1257 741 -156 236 -270 559 -311 885 -11 94 -15
105 -34 108 -16 2 -38 -24 -115 -140 -545 -823 -1263 -1347 -2108 -1536 -609
-137 -1232 -103 -1730 94 -826 328 -1379 1088 -1544 2126 -44 276 -60 767 -36
1089 117 1518 818 2880 1951 3787 812 651 1774 1022 2909 1124 215 19 818 16
1050 -5 818 -76 1566 -255 2058 -494 108 -52 113 -56 108 -81 -12 -54 -698
-4292 -721 -4452 -84 -576 -82 -1019 6 -1291 41 -128 89 -210 168 -290 125
-125 251 -172 466 -172 621 0 1255 497 1660 1304 254 505 418 1106 490 1794
55 530 45 1184 -26 1680 -95 673 -306 1316 -608 1860 -802 1444 -2237 2315
-4100 2490 -1038 97 -2020 -25 -2956 -367 -454 -166 -938 -413 -1340 -683
-759 -510 -1393 -1169 -1882 -1955 -861 -1383 -1237 -3140 -1057 -4940 98
-990 400 -1911 869 -2661 746 -1191 1921 -1995 3397 -2324 286 -64 583 -109
938 -142 233 -21 941 -24 1190 -5 854 67 1617 234 2280 500 138 55 427 187
448 204 8 7 16 7 21 2 14 -14 412 -1307 407 -1320 -9 -24 -526 -233 -856 -345
-771 -263 -1476 -396 -2440 -461 -267 -18 -1299 -18 -1510 0 -926 79 -1779
302 -2575 674 -1061 496 -1971 1249 -2641 2185 -486 679 -856 1479 -1068 2308
-170 672 -246 1292 -246 2030 0 897 117 1751 355 2580 671 2336 2203 4214
4290 5258 1288 644 2791 954 4295 887z"/>
<path d="M11286 13129 c-557 -45 -1078 -290 -1510 -709 -622 -603 -984 -1472
-1013 -2430 -21 -692 174 -1161 578 -1394 137 -78 345 -127 549 -127 196 -1
346 34 535 126 654 316 1223 1191 1404 2160 23 122 343 2287 339 2291 -2 1
-58 14 -125 28 -239 51 -544 73 -757 55z"/>
</g>
</svg>
