<?xml version="1.0" standalone="no"?>
<!DOCTYPE svg PUBLIC "-//W3C//DTD SVG 20010904//EN"
 "http://www.w3.org/TR/2001/REC-SVG-20010904/DTD/svg10.dtd">
<svg version="1.0" xmlns="http://www.w3.org/2000/svg"
 width="2138.000000pt" height="2154.000000pt" viewBox="0 0 2138.000000 2154.000000"
 preserveAspectRatio="xMidYMid meet">

<g transform="translate(0.000000,2154.000000) scale(0.100000,-0.100000)"
fill="#000000" stroke="none">
<path d="M2770 21533 c-439 -42 -781 -140 -1144 -326 -275 -141 -520 -320
-746 -547 -472 -471 -760 -1052 -856 -1725 -11 -80 -17 -191 -18 -335 l-1
-214 5130 -4008 c2822 -2205 5237 -4092 5367 -4194 l237 -185 5318 4161 5318
4161 -1 247 c-1 263 -12 378 -60 606 -93 440 -305 883 -596 1248 -105 132
-324 351 -456 456 -422 337 -879 537 -1452 635 l-125 21 -7940 1 c-4367 1
-7956 0 -7975 -2z"/>
<path d="M0 9523 c0 -4438 3 -6715 10 -6788 35 -380 130 -715 300 -1060 150
-305 328 -554 570 -795 241 -242 490 -420 795 -570 345 -170 680 -265 1060
-300 153 -14 15757 -14 15910 0 380 35 715 130 1060 300 305 150 554 328 795
570 464 463 736 1002 853 1690 l21 125 3 6729 c3 5407 1 6727 -9 6719 -243
-192 -10133 -7890 -10196 -7936 -51 -38 -137 -90 -190 -115 l-97 -47 -135 0
c-168 0 -233 19 -373 108 -53 34 -2407 1859 -5231 4055 -2825 2195 -5138 3992
-5141 3992 -3 0 -5 -3005 -5 -6677z"/>
</g>
</svg>
