<?xml version="1.0" standalone="no"?>
<!DOCTYPE svg PUBLIC "-//W3C//DTD SVG 20010904//EN"
 "http://www.w3.org/TR/2001/REC-SVG-20010904/DTD/svg10.dtd">
<svg version="1.0" xmlns="http://www.w3.org/2000/svg"
 width="2138.000000pt" height="2154.000000pt" viewBox="0 0 2138.000000 2154.000000"
 preserveAspectRatio="xMidYMid meet">

<g transform="translate(0.000000,2154.000000) scale(0.100000,-0.100000)"
fill="#000000" stroke="none">
<path d="M2740 21529 c-896 -73 -1729 -568 -2237 -1329 -332 -497 -517 -1124
-501 -1700 l3 -114 5130 -4008 c2822 -2205 5237 -4092 5367 -4194 l237 -185
5318 4161 5318 4161 3 147 c13 616 -161 1221 -496 1725 -514 774 -1345 1264
-2266 1337 -160 12 -15720 11 -15876 -1z"/>
<path d="M0 10745 c0 -5279 1 -5456 18 -5443 78 55 7002 5443 7001 5447 0 6
-6996 5444 -7010 5449 -5 2 -9 -2303 -9 -5453z"/>
<path d="M17968 13497 c-1874 -1459 -3407 -2654 -3407 -2657 0 -3 1533 -1199
3407 -2658 l3407 -2653 3 2656 c1 1460 1 3850 0 5310 l-3 2654 -3407 -2652z"/>
<path d="M12225 9022 c-528 -411 -1002 -778 -1053 -815 -51 -38 -137 -90 -190
-115 l-97 -47 -135 0 c-168 0 -233 19 -372 108 -54 34 -520 391 -1037 794
l-940 732 -4198 -3280 -4198 -3280 -3 -97 c-9 -289 48 -652 153 -967 381
-1144 1397 -1943 2600 -2045 166 -14 15704 -14 15870 0 1203 102 2220 901
2600 2045 116 348 155 619 154 1070 l0 240 -3027 2367 c-1665 1302 -3486 2725
-4047 3164 -561 438 -1031 806 -1045 819 -14 12 -36 30 -50 38 l-26 17 -959
-748z"/>
</g>
</svg>
