<?xml version="1.0" standalone="no"?>
<!DOCTYPE svg PUBLIC "-//W3C//DTD SVG 20010904//EN"
 "http://www.w3.org/TR/2001/REC-SVG-20010904/DTD/svg10.dtd">
<svg version="1.0" xmlns="http://www.w3.org/2000/svg"
 width="2138.000000pt" height="2154.000000pt" viewBox="0 0 2138.000000 2154.000000"
 preserveAspectRatio="xMidYMid meet">

<g transform="translate(0.000000,2154.000000) scale(0.100000,-0.100000)"
fill="#000000" stroke="none">
<path d="M2740 21529 c-819 -67 -1603 -496 -2115 -1157 -352 -455 -566 -1011
-615 -1598 -13 -164 -13 -15844 0 -16008 22 -259 65 -470 145 -711 381 -1144
1397 -1943 2600 -2045 166 -14 15704 -14 15870 0 713 61 1371 366 1875 870
508 508 810 1163 870 1886 13 164 13 15844 0 16008 -43 515 -210 1001 -488
1419 -514 774 -1345 1264 -2266 1337 -160 12 -15720 11 -15876 -1z m-1297
-4063 c56 -8 115 -23 139 -36 87 -45 218 -150 362 -290 83 -80 160 -154 172
-165 24 -23 279 -272 669 -655 472 -463 786 -769 1005 -980 117 -113 240 -232
274 -264 304 -293 466 -451 1200 -1171 498 -488 479 -470 777 -757 311 -300
364 -351 499 -482 124 -120 839 -819 1225 -1197 110 -108 228 -223 261 -255
95 -91 517 -499 719 -694 175 -170 416 -406 894 -875 362 -355 402 -395 651
-635 128 -124 264 -255 302 -292 59 -58 74 -68 104 -68 28 0 44 9 77 41 23 22
134 129 246 237 264 256 303 293 841 821 583 571 751 735 934 912 82 79 177
171 211 204 34 33 167 161 295 285 128 124 272 263 320 310 47 47 291 285 541
530 568 557 724 708 1099 1070 414 400 700 678 985 958 339 334 662 650 856
837 305 295 649 628 713 689 33 32 259 253 501 490 659 646 912 893 1184 1156
111 107 291 239 351 258 56 18 201 34 239 27 93 -16 191 -54 281 -109 78 -47
127 -92 183 -166 87 -114 96 -133 121 -245 25 -108 25 -113 11 -208 -9 -54
-21 -112 -29 -130 -29 -71 -147 -205 -397 -453 -462 -456 -1237 -1214 -1529
-1494 -102 -99 -573 -556 -674 -655 -715 -702 -1386 -1359 -1466 -1434 -30
-29 -160 -155 -289 -279 -129 -125 -260 -252 -291 -282 -80 -77 -947 -927
-1167 -1144 -219 -215 -216 -208 -119 -300 73 -69 280 -263 370 -346 188 -175
357 -335 651 -620 72 -69 193 -184 270 -255 228 -211 397 -370 610 -575 277
-267 374 -359 489 -465 215 -199 505 -473 861 -816 55 -52 131 -125 169 -160
38 -35 79 -73 90 -84 12 -12 81 -77 155 -145 74 -69 250 -235 390 -370 416
-397 407 -389 587 -555 157 -145 238 -222 559 -531 322 -309 275 -265 420
-399 156 -146 257 -281 290 -391 38 -129 36 -231 -7 -357 -29 -86 -150 -248
-221 -295 -108 -73 -150 -94 -251 -128 l-110 -36 -90 12 c-50 7 -114 20 -142
30 -58 20 -232 131 -284 181 -19 19 -71 68 -115 109 -67 62 -255 242 -565 540
-85 82 -325 307 -532 500 -117 109 -206 194 -538 515 -80 77 -210 201 -290
275 -79 74 -158 149 -176 165 -17 17 -56 53 -85 80 -140 131 -274 258 -499
475 -297 286 -292 281 -372 355 -325 303 -442 414 -792 750 -132 127 -254 244
-271 260 -17 17 -85 80 -150 140 -258 240 -270 252 -869 825 -60 58 -123 119
-140 135 -18 17 -83 78 -146 137 -63 58 -142 132 -175 162 -94 89 -101 88
-227 -35 -104 -102 -500 -490 -798 -783 -370 -364 -659 -646 -959 -936 -332
-321 -355 -343 -542 -525 -156 -152 -242 -218 -359 -277 l-65 -32 -165 -1
c-137 0 -172 3 -210 18 -81 33 -238 146 -333 240 -85 83 -254 246 -797 772
-182 176 -458 447 -885 866 -615 606 -718 705 -742 717 -32 17 -63 9 -100 -25
-16 -16 -65 -61 -109 -102 -151 -142 -250 -235 -349 -331 -278 -267 -596 -569
-725 -690 -79 -74 -158 -148 -175 -165 -18 -16 -61 -57 -96 -89 -35 -33 -172
-164 -304 -291 -230 -221 -434 -415 -760 -720 -83 -77 -203 -192 -269 -255
-65 -63 -124 -119 -130 -125 -6 -5 -76 -73 -156 -150 -166 -160 -246 -236
-450 -425 -79 -74 -152 -141 -161 -150 -115 -109 -234 -224 -434 -415 -132
-127 -278 -267 -325 -310 -46 -44 -92 -87 -100 -95 -9 -8 -69 -64 -134 -125
-131 -121 -134 -124 -292 -275 -237 -228 -575 -550 -673 -643 -113 -107 -275
-220 -355 -247 -28 -10 -94 -23 -148 -30 l-96 -12 -94 32 c-108 37 -134 50
-200 96 -26 19 -52 34 -56 34 -29 0 -144 133 -196 228 -10 17 -45 146 -56 204
-12 61 6 220 30 273 25 55 163 228 236 294 109 100 207 194 464 441 140 135
311 297 379 360 68 63 138 129 155 145 28 26 273 257 360 339 17 16 76 72 131
125 288 278 438 420 639 606 66 61 133 124 151 140 17 17 80 77 141 134 162
155 316 303 434 416 58 56 170 162 250 235 80 74 147 137 150 140 3 3 41 39
85 80 44 41 181 171 305 289 442 423 439 421 736 696 65 61 132 124 149 140
334 320 496 476 570 545 109 103 344 323 439 411 149 139 166 158 166 188 0
30 11 18 -765 782 -264 260 -285 281 -698 681 -144 139 -288 280 -322 313 -34
33 -129 125 -211 204 -210 203 -409 397 -964 942 -602 591 -633 621 -1319
1284 -225 218 -544 529 -886 865 -148 146 -366 360 -484 475 -202 199 -290
297 -355 392 -42 63 -66 231 -47 329 27 138 41 176 93 251 92 133 247 246 401
293 114 34 111 34 240 16z"/>
</g>
</svg>
